<?xml version="1.0" ?><!DOCTYPE svg  PUBLIC '-//W3C//DTD SVG 1.1//EN'  'http://www.w3.org/Graphics/SVG/1.1/DTD/svg11.dtd'><svg height="1687.226px" style="enable-background:new 0 0 1706.035 1687.226;" version="1.1" viewBox="0 0 1706.035 1687.226" width="1706.035px" xml:space="preserve" xmlns="http://www.w3.org/2000/svg" xmlns:xlink="http://www.w3.org/1999/xlink"><g id="cart"><path d="M1690.842,225.329c-12.553-15.147-31.203-23.104-50.875-23.104H307V65.158c0-36.49-28.342-64.933-64.832-64.933H66.07   C29.583,0.226,0,30.235,0,66.726s29.583,66.5,66.07,66.5H175v1301.248c0,0.479,0.612,0.941,0.619,1.418   c-0.09,2.758,0.066,5.51,0.066,8.289c0,134.123,109.255,243.226,243.377,243.226c111.221,0,205.312-74.181,234.179-177.181h341.893   c28.867,103,122.824,177.181,234.045,177.181c134.122,0,243.238-109.109,243.238-243.23c0-134.123-109.116-243.178-243.238-243.178   c-111.221,0-205.174,78.228-234.045,177.228H653.242c-28.867-99-123.441-177.224-234.658-177.224   c-39.959,0-75.584,9.691-111.584,26.838v-131.518c10,1.839,20.96,4.903,31.199,4.903H1397.95   c84.879,0,156.989-60.083,179.442-147.979c0.346-1.346,0.646-3.222,0.903-4.59l126.586-669.039   C1708.541,260.286,1703.392,240.479,1690.842,225.329z M1229.18,1333.085c61.257,0,111.098,49.838,111.098,111.096   c0,61.26-49.841,111.096-111.098,111.096c-61.258,0-111.098-49.836-111.098-111.096   C1118.082,1382.923,1167.922,1333.085,1229.18,1333.085z M419.2,1333.085c61.258,0,111.095,49.838,111.095,111.096   c0,61.26-49.837,111.096-111.095,111.096c-61.26,0-111.101-49.836-111.101-111.096C308.1,1382.923,357.94,1333.085,419.2,1333.085z    M1448.91,922.553c-3.568,12.727-16.202,45.673-50.96,45.673H338.199c-16.802,0-31.199-14.891-31.199-32.363V334.226h1253.224   L1448.91,922.553z"/></g><g id="Layer_1"/></svg>